HIERARCHY
ROOT Hips
{
	OFFSET -0.001795 -0.223333 0.028219
	CHANNELS 6 Xposition Yposition Zposition Zrotation Yrotation Xrotation 
	JOINT LeftUpLeg
	{
		OFFSET 0.069520 -0.091406 -0.006815
		CHANNELS 3 Zrotation Yrotation Xrotation
		JOINT LeftLeg
		{
			OFFSET 0.034277 -0.375199 -0.004496
			CHANNELS 3 Zrotation Yrotation Xrotation
			JOINT LeftFoot
			{
				OFFSET -0.013596 -0.397961 -0.043693
				CHANNELS 3 Zrotation Yrotation Xrotation
				JOINT LeftToe
				{
					OFFSET 0.026358 -0.055791 0.119288
					CHANNELS 3 Zrotation Yrotation Xrotation
					End Site
					{
						OFFSET 0.000000 0.000000 0.000000
					}
				}
			}
		}
	}
	JOINT RightUpLeg
	{
		OFFSET -0.067670 -0.090522 -0.004320
		CHANNELS 3 Zrotation Yrotation Xrotation
		JOINT RightLeg
		{
			OFFSET -0.038290 -0.382569 -0.008850
			CHANNELS 3 Zrotation Yrotation Xrotation
			JOINT RightFoot
			{
				OFFSET 0.015774 -0.398415 -0.042312
				CHANNELS 3 Zrotation Yrotation Xrotation
				JOINT RightToe
				{
					OFFSET -0.025372 -0.048144 0.123348
					CHANNELS 3 Zrotation Yrotation Xrotation
					End Site
					{
						OFFSET 0.000000 0.000000 0.000000
					}
				}
			}
		}
	}
	JOINT Spine
	{
		OFFSET -0.002533 0.108963 -0.026696
		CHANNELS 3 Zrotation Yrotation Xrotation
		JOINT Spine1
		{
			OFFSET 0.005487 0.135180 0.001092
			CHANNELS 3 Zrotation Yrotation Xrotation
			JOINT Spine2
			{
				OFFSET 0.001457 0.052922 0.025425
				CHANNELS 3 Zrotation Yrotation Xrotation
				JOINT Neck
				{
					OFFSET -0.002778 0.213870 -0.042857
					CHANNELS 3 Zrotation Yrotation Xrotation
					JOINT Head
					{
						OFFSET 0.005152 0.064970 0.051349
						CHANNELS 3 Zrotation Yrotation Xrotation
						End Site
						{
							OFFSET 0.000000 0.000000 0.000000
						}
					}
				}
				JOINT LeftShoulder
				{
					OFFSET 0.078845 0.121749 -0.034090
					CHANNELS 3 Zrotation Yrotation Xrotation
					JOINT LeftArm
					{
						OFFSET 0.090977 0.030469 -0.008868
						CHANNELS 3 Zrotation Yrotation Xrotation
						JOINT LeftForeArm
						{
							OFFSET 0.259612 -0.012772 -0.027456
							CHANNELS 3 Zrotation Yrotation Xrotation
							JOINT LeftHand
							{
								OFFSET 0.249234 0.008986 -0.001171
								CHANNELS 3 Zrotation Yrotation Xrotation
								End Site
								{
									OFFSET 0.000000 0.000000 0.000000
								}
							}
						}
					}
				}
				JOINT RightShoulder
				{
					OFFSET -0.081759 0.118833 -0.038615
					CHANNELS 3 Zrotation Yrotation Xrotation
					JOINT RightArm
					{
						OFFSET -0.096012 0.032551 -0.009143
						CHANNELS 3 Zrotation Yrotation Xrotation
						JOINT RightForeArm
						{
							OFFSET -0.253742 -0.013329 -0.021401
							CHANNELS 3 Zrotation Yrotation Xrotation
							JOINT RightHand
							{
								OFFSET -0.255298 0.007772 -0.005559
								CHANNELS 3 Zrotation Yrotation Xrotation
								End Site
								{
									OFFSET 0.000000 0.000000 0.000000
								}
							}
						}
					}
				}
			}
		}
	}
}
MOTION
Frames: 7
Frame Time: 0.050000
-0.012895 0.946469 -0.030322 -1.535286 5.590208 7.858868 1.494158 -0.560274 -6.510930 1.296424 0.104542 -5.228204 -4.455475 -3.706936 9.019212 0.000000 0.000000 0.000000 0.744021 0.760670 -7.324811 -5.806793 0.774061 1.529614 -0.299447 -2.754956 5.389638 0.000000 0.000000 0.000000 6.914911 0.534463 -8.494012 -6.275989 2.756594 -6.112131 -3.898230 13.220130 -5.058311 15.025329 -6.300246 -15.789000 0.000000 0.000000 0.000000 -1.980140 -15.894977 4.311305 -49.630236 -49.379158 14.271791 124.932903 -30.027306 -60.838437 0.000000 0.000000 0.000000 -13.806025 22.279533 5.586410 -166.531303 60.923718 -150.626245 -68.876670 14.028665 -9.790453 0.000000 0.000000 0.000000 
-0.012346 0.947011 -0.031392 -1.540445 5.831278 8.128322 1.611641 -0.573646 -6.683887 1.085724 0.122626 -5.411979 -4.359799 -3.527526 8.990771 0.000000 0.000000 0.000000 0.754456 0.811415 -7.822223 -6.052792 0.831039 1.830268 -0.314276 -2.787886 5.448702 0.000000 0.000000 0.000000 6.645129 0.530029 -8.655732 -6.247451 2.742168 -6.215060 -4.172068 12.633311 -5.599713 14.932898 -6.220633 -15.885019 0.000000 0.000000 0.000000 -0.747314 -16.157728 4.592701 -50.843251 -51.757622 15.694426 124.193896 -28.191376 -57.181984 0.000000 0.000000 0.000000 -15.463581 22.742418 5.361416 -162.575144 61.859881 -144.190935 -69.592693 10.160117 -7.347926 0.000000 0.000000 0.000000 
-0.012164 0.948177 -0.032212 -1.648134 5.802644 8.293658 1.813420 -0.580315 -6.797659 1.211683 0.118126 -5.452148 -4.563218 -3.621245 9.485726 0.000000 0.000000 0.000000 0.818587 0.825629 -7.942831 -5.896676 0.810345 1.821103 -0.406477 -3.136443 5.878054 0.000000 0.000000 0.000000 6.372848 0.528248 -8.771239 -6.330371 2.767115 -6.460881 -4.290772 12.193859 -5.499534 14.894753 -6.029418 -16.536522 0.000000 0.000000 0.000000 0.198191 -16.450905 4.839808 -50.836471 -54.669597 16.939066 122.750960 -26.681673 -53.069265 0.000000 0.000000 0.000000 -16.777052 22.792996 5.074136 -159.564678 62.153895 -139.322121 -70.082847 7.413331 -5.582960 0.000000 0.000000 0.000000 
-0.011922 0.948740 -0.032577 -1.649632 6.543127 8.377400 2.291971 -0.567846 -6.687126 0.750302 0.157609 -5.959778 -4.596359 -3.441258 9.769373 0.000000 0.000000 0.000000 1.292316 0.851200 -8.024093 -6.241494 0.852151 1.763161 -0.552907 -3.410050 5.907744 0.000000 0.000000 0.000000 5.975428 0.510835 -8.880620 -6.296361 2.757051 -6.562942 -4.577477 11.407052 -5.548757 14.771992 -5.978950 -16.512385 0.000000 0.000000 0.000000 1.422914 -16.713171 5.091130 -51.135277 -57.260222 18.157991 121.373358 -25.570372 -49.900248 0.000000 0.000000 0.000000 -17.748163 22.649888 4.828847 -157.941205 63.438481 -137.682474 -70.720160 6.916654 -5.192602 0.000000 0.000000 0.000000 
-0.011314 0.949109 -0.032723 -1.921967 6.647911 8.252609 2.604168 -0.539277 -6.339057 0.945365 0.155916 -6.150385 -4.936636 -3.915198 9.981313 0.000000 0.000000 0.000000 1.640732 0.831580 -7.719715 -6.233370 0.810316 1.297619 -0.805831 -3.999912 6.019890 0.000000 0.000000 0.000000 6.105545 0.512199 -8.832302 -6.359250 2.785260 -6.483370 -4.627766 10.918181 -5.823972 14.493531 -5.860883 -16.383620 0.000000 0.000000 0.000000 1.882507 -16.562942 5.116654 -51.910099 -58.786428 19.321851 120.742725 -25.800842 -49.480595 0.000000 0.000000 0.000000 -18.136657 23.040896 4.886254 -157.723736 65.119529 -138.983252 -71.928725 8.514942 -6.185109 0.000000 0.000000 0.000000 
-0.010227 0.948710 -0.032976 -2.021135 6.984363 8.154321 3.209524 -0.528448 -6.225718 0.301784 0.172899 -5.878923 -4.951840 -3.898687 9.996932 0.000000 0.000000 0.000000 1.911757 0.810792 -7.438099 -6.187718 0.839362 1.651615 -1.144923 -4.537780 5.312288 0.000000 0.000000 0.000000 5.912101 0.504953 -8.853658 -6.161025 2.715840 -6.314665 -4.928155 11.141534 -5.990315 14.049067 -5.599802 -16.191322 0.000000 0.000000 0.000000 2.423747 -16.907840 5.270506 -51.999274 -59.834615 19.660702 119.728126 -26.593725 -50.056963 0.000000 0.000000 0.000000 -17.774113 22.778914 4.880204 -159.435156 67.832957 -143.339499 -73.285231 11.075337 -7.896817 0.000000 0.000000 0.000000 
-0.008962 0.948340 -0.033610 -2.264213 6.862993 7.864556 3.362136 -0.498551 -5.814154 0.253563 0.171169 -5.750640 -4.915974 -4.036254 9.668607 0.000000 0.000000 0.000000 2.090270 0.773675 -7.050176 -6.072201 0.845633 1.882400 -1.221688 -4.714550 5.283654 0.000000 0.000000 0.000000 6.033475 0.515447 -8.839207 -5.880551 2.602573 -6.533108 -4.735586 11.424503 -5.612481 13.502844 -5.471748 -15.473258 0.000000 0.000000 0.000000 2.493202 -16.795366 5.246629 -51.294930 -59.825989 19.199923 119.132444 -27.238987 -50.505066 0.000000 0.000000 0.000000 -16.921711 23.123122 5.144360 -162.662711 71.600328 -150.643187 -74.967910 15.889285 -11.149176 0.000000 0.000000 0.000000 
